<svg width="318" height="32" viewBox="0 0 318 32" fill="none" xmlns="http://www.w3.org/2000/svg">
<path d="M314.742 20.5552C315.969 20.6088 316.869 21.7512 316.478 22.9151C315.636 25.4214 314.297 27.4576 312.463 29.0237C310.105 31.0075 307.101 31.9994 303.449 31.9994C300.459 31.9994 297.814 31.3094 295.514 29.9293C293.243 28.5493 291.475 26.6518 290.21 24.2367C288.973 21.8217 288.355 19.0904 288.355 16.0428C288.355 12.9953 288.973 10.2496 290.21 7.80578C291.446 5.36198 293.214 3.45007 295.514 2.07004C297.814 0.690013 300.459 0 303.449 0C307.014 0 309.976 0.963143 312.333 2.88943C314.144 4.36882 315.48 6.29759 316.341 8.67573C316.762 9.84089 315.861 11.0039 314.623 11.0586L310.839 11.2259C309.879 11.2683 309.056 10.6062 308.656 9.73286C308.264 8.87647 307.736 8.16224 307.072 7.59015C306.066 6.67013 304.801 6.21012 303.277 6.21012C301.696 6.21012 300.373 6.627 299.309 7.46077C298.246 8.26578 297.441 9.4158 296.894 10.9108C296.377 12.4059 296.118 14.1165 296.118 16.0428C296.118 17.9691 296.377 19.6654 296.894 21.1317C297.441 22.5979 298.246 23.748 299.309 24.5817C300.373 25.3867 301.696 25.7892 303.277 25.7892C304.887 25.7892 306.195 25.3005 307.201 24.323C307.85 23.6924 308.356 22.9123 308.718 21.9826C309.079 21.0542 309.925 20.3446 310.92 20.3881L314.742 20.5552Z" fill="black"/>
<path d="M283.351 0.690887C284.455 0.690887 285.351 1.58632 285.351 2.69089V29.3102C285.351 30.4148 284.455 31.3102 283.351 31.3102H279.761C278.656 31.3102 277.761 30.4148 277.761 29.3102V2.69089C277.761 1.58632 278.656 0.690887 279.761 0.690887H283.351Z" fill="black"/>
<path d="M247.618 0.690887C248.475 0.690887 249.236 1.23601 249.512 2.04666L254.224 15.8957C254.839 17.7052 257.4 17.7028 258.012 15.8922L262.693 2.05019C262.968 1.23773 263.73 0.690887 264.587 0.690887H271.201C272.305 0.690887 273.201 1.58632 273.201 2.69089V29.3102C273.201 30.4148 272.305 31.3102 271.201 31.3102H267.611C266.506 31.3102 265.611 30.4148 265.611 29.3102V24.2685C265.611 22.0171 262.467 21.4825 261.723 23.6074L259.524 29.8851C259.244 30.687 258.487 31.224 257.637 31.224H254.609C253.759 31.224 253.002 30.687 252.722 29.8851L250.523 23.6074C249.779 21.4825 246.635 22.017 246.635 24.2685V29.3102C246.635 30.4148 245.74 31.3102 244.635 31.3102H241.045C239.941 31.3102 239.045 30.4148 239.045 29.3102V2.69089C239.045 1.58632 239.941 0.690887 241.045 0.690887H247.618Z" fill="black"/>
<path d="M217.253 2.01251C217.539 1.21948 218.291 0.690887 219.134 0.690887H224.561C225.404 0.690887 226.157 1.21948 226.443 2.01251L236.041 28.6319C236.511 29.9353 235.545 31.3102 234.159 31.3102H230.927C230.074 31.3102 229.316 30.7697 229.037 29.964L227.984 26.9208C227.706 26.115 226.947 25.5745 226.094 25.5745H217.568C216.711 25.5745 215.948 26.1212 215.674 26.9335L214.653 29.9512C214.378 30.7635 213.616 31.3102 212.758 31.3102H209.536C208.15 31.3102 207.185 29.9353 207.655 28.6319L217.253 2.01251ZM222.703 19.5369C224.072 19.5369 225.036 18.1921 224.597 16.8953L223.752 14.4013C223.14 12.5935 220.585 12.5889 219.966 14.3944L219.111 16.8884C218.666 18.1865 219.631 19.5369 221.003 19.5369H222.703Z" fill="black"/>
<path d="M193.361 0.690887C195.517 0.690887 197.443 1.05027 199.14 1.76903C200.836 2.45905 202.173 3.49407 203.15 4.87409C204.128 6.25412 204.617 7.92165 204.617 9.87669C204.617 11.3142 204.343 12.5792 203.797 13.6718C203.251 14.7355 202.46 15.5981 201.425 16.2593C200.436 16.9095 199.266 17.3512 197.915 17.5844C197.871 17.5921 197.825 17.5813 197.789 17.5548V17.5548C197.657 17.4592 197.725 17.254 197.888 17.2589C199.87 17.3191 201.35 17.7335 202.331 18.5019C203.395 19.3356 203.998 20.7157 204.142 22.6419L204.692 29.1417C204.791 30.3086 203.87 31.3102 202.699 31.3102H199.107C198.056 31.3102 197.185 30.4979 197.111 29.4502L196.725 23.9357C196.638 22.6707 196.236 21.7938 195.517 21.305C194.798 20.7875 193.634 20.5288 192.024 20.5288H188.935C187.83 20.5288 186.935 21.4242 186.935 22.5288V29.3102C186.935 30.4148 186.04 31.3102 184.935 31.3102H181.345C180.24 31.3102 179.345 30.4148 179.345 29.3102V2.69089C179.345 1.58632 180.24 0.690887 181.345 0.690887H193.361ZM192.11 14.3186C193.663 14.3186 194.841 14.0024 195.646 13.3699C196.451 12.7374 196.854 11.8174 196.854 10.6098C196.854 9.40231 196.451 8.48229 195.646 7.84978C194.841 7.21726 193.663 6.90101 192.11 6.90101H188.935C187.83 6.90101 186.935 7.79644 186.935 8.90101V12.3187C186.935 13.4232 187.83 14.3186 188.935 14.3186H192.11Z" fill="black"/>
<path d="M173.596 0.690887C174.7 0.690887 175.596 1.58632 175.596 2.69089V4.90101C175.596 6.00557 174.7 6.90101 173.596 6.90101H163.149C162.044 6.90101 161.149 7.79644 161.149 8.90101V10.8955C161.149 12.0001 162.044 12.8955 163.149 12.8955H173.078C174.183 12.8955 175.078 13.7909 175.078 14.8955V17.0194C175.078 18.1239 174.183 19.0194 173.078 19.0194H163.149C162.044 19.0194 161.149 19.9148 161.149 21.0194V23.1001C161.149 24.2047 162.044 25.1001 163.149 25.1001H173.941C175.045 25.1001 175.941 25.9955 175.941 27.1001V29.3102C175.941 30.4148 175.045 31.3102 173.941 31.3102H155.558C154.454 31.3102 153.558 30.4148 153.558 29.3102V2.69089C153.558 1.58632 154.454 0.690887 155.558 0.690887H173.596Z" fill="black"/>
<path d="M148.275 20.5552C149.501 20.6088 150.402 21.7512 150.01 22.9151C149.168 25.4214 147.83 27.4576 145.995 29.0237C143.638 31.0075 140.633 31.9994 136.982 31.9994C133.992 31.9994 131.347 31.3094 129.047 29.9293C126.775 28.5493 125.007 26.6518 123.742 24.2367C122.506 21.8217 121.888 19.0904 121.888 16.0428C121.888 12.9953 122.506 10.2496 123.742 7.80578C124.979 5.36198 126.747 3.45007 129.047 2.07004C131.347 0.690013 133.992 0 136.982 0C140.547 0 143.508 0.963143 145.866 2.88943C147.676 4.36882 149.012 6.29759 149.873 8.67573C150.295 9.84089 149.393 11.0039 148.155 11.0586L144.372 11.2259C143.412 11.2683 142.589 10.6062 142.189 9.73286C141.797 8.87647 141.269 8.16224 140.605 7.59015C139.598 6.67013 138.333 6.21012 136.809 6.21012C135.228 6.21012 133.906 6.627 132.842 7.46077C131.778 8.26578 130.973 9.4158 130.427 10.9108C129.909 12.4059 129.651 14.1165 129.651 16.0428C129.651 17.9691 129.909 19.6654 130.427 21.1317C130.973 22.5979 131.778 23.748 132.842 24.5817C133.906 25.3867 135.228 25.7892 136.809 25.7892C138.419 25.7892 139.728 25.3005 140.734 24.323C141.383 23.6924 141.889 22.9123 142.251 21.9826C142.612 21.0542 143.458 20.3446 144.453 20.3881L148.275 20.5552Z" fill="black"/>
<path d="M90.7293 2.69089C90.7293 1.58632 91.6248 0.690887 92.7293 0.690887H96.3195C97.424 0.690887 98.3195 1.58632 98.3195 2.69089V26.3818C98.3195 27.5329 96.9199 28.1005 96.1181 27.2747V27.2747C95.329 26.4619 95.905 25.1001 97.0377 25.1001H109.99C111.095 25.1001 111.99 25.9955 111.99 27.1001V29.3102C111.99 30.4148 111.095 31.3102 109.99 31.3102H92.7293C91.6248 31.3102 90.7293 30.4148 90.7293 29.3102V2.69089Z" fill="black"/>
<path d="M86.8056 20.0972C86.8056 22.5122 86.2737 24.6254 85.2099 26.4367C84.1461 28.2192 82.6367 29.5992 80.6817 30.5767C78.7267 31.5255 76.4266 31.9999 73.7816 31.9999C71.1365 31.9999 68.8365 31.5255 66.8814 30.5767C64.9264 29.5992 63.417 28.2192 62.3532 26.4367C61.3182 24.6254 60.8007 22.5122 60.8007 20.0972V2.64741C60.8007 1.54284 61.6961 0.647415 62.8007 0.647415H66.3908C67.4954 0.647415 68.3908 1.54285 68.3908 2.64742V20.0972C68.3908 21.966 68.8508 23.3891 69.7709 24.3666C70.7196 25.3154 72.0565 25.7898 73.7816 25.7898C75.5066 25.7898 76.8435 25.3154 77.7923 24.3666C78.741 23.3891 79.2154 21.966 79.2154 20.0972V2.64741C79.2154 1.54284 80.1109 0.647415 81.2154 0.647415H84.8056C85.9101 0.647415 86.8056 1.54285 86.8056 2.64742V20.0972Z" fill="black"/>
<path d="M43.1025 31.9994C40.0262 31.9994 37.3524 31.3525 35.0811 30.0587C32.8098 28.7649 31.056 26.9249 29.8198 24.5386C28.6122 22.1236 28.0085 19.2916 28.0085 16.0428C28.0085 12.7652 28.6122 9.91894 29.8198 7.50389C31.056 5.08885 32.8098 3.23444 35.0811 1.94066C37.3524 0.646887 40.0262 0 43.1025 0C46.1788 0 48.8526 0.646887 51.1239 1.94066C53.3952 3.23444 55.1346 5.08885 56.3422 7.50389C57.5784 9.91894 58.1966 12.7652 58.1966 16.0428C58.1966 19.2916 57.5784 22.1236 56.3422 24.5386C55.1346 26.9249 53.3952 28.7649 51.1239 30.0587C48.8526 31.3525 46.1788 31.9994 43.1025 31.9994ZM43.1025 25.7892C44.6551 25.7892 45.9776 25.4155 47.0701 24.668C48.1626 23.8917 48.9964 22.7848 49.5714 21.3473C50.1464 19.881 50.4339 18.1129 50.4339 16.0428C50.4339 13.9728 50.1464 12.2046 49.5714 10.7383C48.9964 9.2433 48.1626 8.12203 47.0701 7.37452C45.9776 6.59825 44.6551 6.21012 43.1025 6.21012C41.5212 6.21012 40.1843 6.59825 39.0918 7.37452C37.9993 8.12203 37.1655 9.2433 36.5905 10.7383C36.0443 12.2046 35.7711 13.9728 35.7711 16.0428C35.7711 18.1129 36.0443 19.881 36.5905 21.3473C37.1655 22.7848 37.9993 23.8917 39.0918 24.668C40.1843 25.4155 41.5212 25.7892 43.1025 25.7892Z" fill="black"/>
<path d="M5.76488 20.8352C6.78026 20.783 7.63469 21.522 8.04437 22.4525C8.19606 22.7971 8.37528 23.1187 8.58204 23.4173C9.09955 24.1361 9.78956 24.6967 10.6521 25.0992C11.5146 25.473 12.5209 25.6599 13.6709 25.6599C14.5334 25.6599 15.2809 25.5449 15.9134 25.3149C16.5747 25.0849 17.0778 24.7542 17.4228 24.323C17.7678 23.8917 17.9403 23.3598 17.9403 22.7273C17.9116 21.7498 17.4516 20.9592 16.5603 20.3554C15.6691 19.7516 14.1309 19.191 11.9459 18.6735C8.17953 17.811 5.33323 16.6322 3.40694 15.1372C1.5094 13.6421 0.560636 11.6871 0.560636 9.27205C0.560636 7.40327 1.06377 5.77886 2.07004 4.39883C3.07631 2.99006 4.48509 1.91191 6.29637 1.1644C8.13641 0.388132 10.2783 0 12.7221 0C15.0222 0 17.0635 0.445633 18.846 1.3369C20.6573 2.19942 22.0948 3.43569 23.1586 5.04572C23.8703 6.07592 24.4052 7.22205 24.7631 8.4841C25.0818 9.60802 24.186 10.6492 23.0187 10.6961L19.5867 10.8342C18.5201 10.8771 17.657 10.0458 17.2335 9.066C17.1274 8.82057 17.0036 8.58738 16.8622 8.36641C16.4022 7.6189 15.7984 7.05826 15.0509 6.6845C14.3322 6.31075 13.4984 6.12387 12.5496 6.12387C11.2271 6.12387 10.1633 6.42575 9.35831 7.02951C8.55329 7.63327 8.19391 8.42391 8.28016 9.40143C8.30891 10.0627 8.55329 10.6233 9.0133 11.0833C9.47331 11.5146 10.0483 11.874 10.7383 12.1615C11.4283 12.4202 12.3484 12.6934 13.4984 12.9809L14.0159 13.1103C17.7535 13.8865 20.6141 15.0509 22.5979 16.6034C24.6105 18.156 25.6167 20.1398 25.6167 22.5548C25.6167 24.4523 25.0992 26.1055 24.0642 27.5143C23.0292 28.9231 21.5917 30.0012 19.7516 30.7487C17.9116 31.4675 15.8272 31.8269 13.4984 31.8269C10.9396 31.8269 8.66829 31.3956 6.6845 30.5331C4.70072 29.6706 3.11944 28.4343 1.94066 26.8243C1.16175 25.7143 0.613642 24.4857 0.296344 23.1383C0.040425 22.0516 0.912948 21.0847 2.02792 21.0274L5.76488 20.8352Z" fill="black"/>
</svg>
